HIERARCHY
ROOT Hips
{
    OFFSET 0.0 0.0 0.0
    CHANNELS 6 Xposition Yposition Zposition Zrotation Xrotation Yrotation
    JOINT LeftHipJoint
    {
        OFFSET 0.1 0.0 0.0
        CHANNELS 3 Zrotation Xrotation Yrotation
        JOINT LeftUpLeg
        {
            OFFSET 118.21850524964503 0.0 0.0
            CHANNELS 3 Zrotation Xrotation Yrotation
            JOINT LeftLeg
            {
                OFFSET 0.0 0.0 -387.8809426835626
                CHANNELS 3 Zrotation Xrotation Yrotation
                JOINT LeftFoot
                {
                    OFFSET 0.0 0.0 -390.3738051453656
                    CHANNELS 3 Zrotation Xrotation Yrotation
                    End Site
                    {
                        OFFSET 0.0 -0.1 0.0
                    }
                }
            }
        }
    }
    JOINT LowerBack
    {
        OFFSET 0.0 0.0 0.1
        CHANNELS 3 Zrotation Xrotation Yrotation
        JOINT Spine
        {
            OFFSET 0.0 0.0 216.32494212749717
            CHANNELS 3 Zrotation Xrotation Yrotation
            JOINT Spine1
            {
                OFFSET 0.0 0.0 253.802452603918
                CHANNELS 3 Zrotation Xrotation Yrotation
                JOINT LeftShoulder
                {
                    OFFSET 0.1 0.0 0.0
                    CHANNELS 3 Zrotation Xrotation Yrotation
                    JOINT LeftArm
                    {
                        OFFSET 141.3807129151072 0.0 0.0
                        CHANNELS 3 Zrotation Xrotation Yrotation
                        JOINT LeftForeArm
                        {
                            OFFSET 254.77829741970072 0.0 0.0
                            CHANNELS 3 Zrotation Xrotation Yrotation
                            JOINT LeftHand
                            {
                                OFFSET 246.8204767931408 0.0 0.0
                                CHANNELS 3 Zrotation Xrotation Yrotation
                                End Site
                                {
                                    OFFSET 0.1 0.0 0.0
                                }
                            }
                        }
                    }
                }
                JOINT Neck
                {
                    OFFSET 0.0 0.0 0.1
                    CHANNELS 3 Zrotation Xrotation Yrotation
                    JOINT Neck1
                    {
                        OFFSET 0.0 0.0 108.99907978859041
                        CHANNELS 3 Zrotation Xrotation Yrotation
                        End Site
                        {
                            OFFSET 0.0 0.0 118.35774356185973
                        }
                    }
                }
                JOINT RightShoulder
                {
                    OFFSET -0.1 0.0 0.0
                    CHANNELS 3 Zrotation Xrotation Yrotation
                    JOINT RightArm
                    {
                        OFFSET -141.3807129151072 0.0 0.0
                        CHANNELS 3 Zrotation Xrotation Yrotation
                        JOINT RightForeArm
                        {
                            OFFSET -254.77829741970072 0.0 0.0
                            CHANNELS 3 Zrotation Xrotation Yrotation
                            JOINT RightHand
                            {
                                OFFSET -246.8204767931408 0.0 0.0
                                CHANNELS 3 Zrotation Xrotation Yrotation
                                End Site
                                {
                                    OFFSET -0.1 0.0 0.0
                                }
                            }
                        }
                    }
                }
            }
        }
    }
    JOINT RightHipJoint
    {
        OFFSET -0.1 0.0 0.0
        CHANNELS 3 Zrotation Xrotation Yrotation
        JOINT RightUpLeg
        {
            OFFSET -118.21850524964503 0.0 0.0
            CHANNELS 3 Zrotation Xrotation Yrotation
            JOINT RightLeg
            {
                OFFSET 0.0 0.0 -387.8809426835626
                CHANNELS 3 Zrotation Xrotation Yrotation
                JOINT RightFoot
                {
                    OFFSET 0.0 0.0 -390.3738051453656
                    CHANNELS 3 Zrotation Xrotation Yrotation
                    End Site
                    {
                        OFFSET 0.0 -0.1 0.0
                    }
                }
            }
        }
    }
}
MOTION
Frames: 7
Frame Time: 0.03333333333333333
0.0 0.0 780.60324064853 18.776709421519055 -0.43966266612054894 3.5177027629387743 0.0 0.0 -7.454425034680117e-17 -1.1613334423800967 -13.549882909889906 -5.239320224165442 -0.1493381748502435 27.43048811896615 3.580908908281853 0.0 0.0 0.0 0.0 0.0 -7.454425034680117e-17 -0.4960339836012673 -5.866316909749252 -2.6425848837480097 -4.246018025211761 1.149013142062882e-15 -5.686615310228151e-17 0.0 0.0 9.93923337957349e-17 -11.4963634719379 -42.48806137708312 36.62549769124383 -122.12564561719027 -6.517121976498719e-15 1.450604436736372e-14 -6.3611093629270335e-15 0.0 0.0 0.0 0.0 9.93923337957349e-17 5.517828511123368 -8.721223508354248 -12.669252747499927 0.0 0.0 9.93923337957349e-17 20.016819555371203 18.256063838664964 -77.86162512088572 31.383670345595167 -4.833697947284485e-15 6.313470888943704e-15 4.4139062980501586e-32 -3.1805546814635164e-15 1.5902773407317582e-15 0.0 0.0 -7.454425034680117e-17 -1.2607625043508788 -14.609475277822392 -3.2299630112409696 1.0551243195594393 31.06753360730262 0.31803526256129344 0.0 0.0 3.975693351829396e-16
0.0 0.0 780.60324064853 18.744226252983555 -0.48274711344401106 3.5338946896818926 0.0 0.0 -1.2424041724466862e-16 -1.1392997072616975 -13.411970525989119 -5.2570968992246065 -0.18110274680182584 27.36788294396859 3.6223086218232896 0.0 0.0 0.0 0.0 0.0 -1.2424041724466862e-16 -0.49682800321438436 -5.925168354230346 -2.6906255982436877 -4.280264518076738 1.0801376885698094e-15 4.036445957758002e-17 0.0 0.0 0.0 -11.917758432882481 -42.48868039263321 36.15944857427865 -121.88837079787646 0.0 -0.0 -6.3611093629270335e-15 0.0 0.0 0.0 0.0 0.0 5.5205052980818206 -8.679139937257489 -12.695057545779322 0.0 0.0 0.0 19.79217201311713 18.268520559788808 -77.74123864201385 31.386823710291875 -9.667048418958998e-15 1.2627207803389855e-14 0.0 0.0 -1.5902773407317584e-15 0.0 0.0 -1.2424041724466862e-16 -1.245331518146243 -14.554665682741888 -3.2174045571343814 1.036103481089151 31.05061721350297 0.23746598510221778 0.0 0.0 3.975693351829396e-16
0.0 0.0 780.60324064853 18.731772932638595 -0.4651974458528955 3.5010600134752106 0.0 0.0 0.0 -1.104272253385781 -13.232558078096332 -5.218961712597137 -0.2047814868357608 27.205393454104637 3.6053880913937464 -3.1805546814635164e-15 0.0 0.0 0.0 0.0 0.0 -0.49725045209960045 -6.031914919343193 -2.659904285436691 -4.311113579644904 2.6135485830212147e-16 -8.962549446491697e-17 0.0 0.0 -9.93923337957349e-17 -12.591991976420362 -42.27155415970975 35.6163588416831 -121.50711637624804 -1.5539142394662649e-15 -2.7751177665395524e-15 0.0 0.0 0.0 0.0 0.0 -9.93923337957349e-17 5.496037757399917 -8.572223664510927 -12.706634554170602 0.0 0.0 -9.93923337957349e-17 19.756994798258614 18.3167292494488 -77.74009335691359 31.532988260851056 -3.492999042892653e-15 -6.662340343868514e-16 0.0 0.0 2.3854160110976376e-15 0.0 0.0 0.0 -1.2188876692943038 -14.493135144920133 -3.127535788955515 1.0423789300858108 31.12946120333481 0.15977934256429632 0.0 0.0 3.975693351829396e-16
0.0 0.0 780.60324064853 18.639476121805835 -0.4942730459024587 3.5009972202475246 0.0 0.0 -1.2424041724466862e-16 -1.0812436493495137 -13.202441602797409 -5.255516639447803 -0.2720331691909177 27.421474851349124 3.6540481177273563 0.0 0.0 0.0 0.0 0.0 -1.2424041724466862e-16 -0.49577377331541217 -6.126569226725879 -2.6877898435190137 -4.4004518196371905 -1.6281771965615635e-16 1.9267585793486173e-16 0.0 1.2424041724466861e-17 0.0 -13.158172863275215 -42.0293994666296 35.123356699716616 -120.67457077700477 3.953474645742872e-15 -5.911825321706126e-15 0.0 0.0 0.0 0.0 1.2424041724466861e-17 0.0 5.545385377924982 -8.373873765925731 -12.697168357730112 0.0 1.2424041724466861e-17 0.0 19.88097415911745 18.54212999596532 -77.76022810819254 31.680702849201964 -1.2673183820808127e-14 1.942741149233177e-15 0.0 0.0 -1.5902773407317584e-15 0.0 0.0 -1.2424041724466862e-16 -1.1972454255162313 -14.502972613637588 -3.1148999121144767 1.001530949010061 31.265864212211838 0.19064207950691056 0.0 0.0 0.0
0.0 0.0 780.60324064853 18.391311365315563 -0.3754405571016522 3.4868080646227337 0.0 0.0 1.242404172446686e-16 -1.053179073863981 -13.177553528853664 -5.277550393487 -0.3431739457682145 27.482173969207768 3.9002654878678062 0.0 0.0 0.0 0.0 0.0 1.242404172446686e-16 -0.49651339075989703 -6.284973006743474 -2.749236534395456 -4.475335819625322 1.8978746814013307e-15 2.7309494591746334e-16 0.0 1.2424041724466862e-17 0.0 -13.713647069555753 -41.67335541422896 34.45092878450664 -119.1516996442472 9.359748811235432e-15 -9.185090069282298e-15 0.0 0.0 0.0 0.0 1.2424041724466862e-17 0.0 5.7786461195953684 -8.137783778245536 -12.653907002662908 0.0 1.2424041724466862e-17 0.0 19.757388130781493 18.810814858689586 -77.70302879791649 31.800192785678565 1.7518482259655787e-15 -5.459651459476567e-15 6.361109362927033e-15 -3.089734408635111e-31 -5.5659706925611536e-15 0.0 0.0 1.242404172446686e-16 -1.1816264335648747 -14.656952033134694 -3.1335797942360974 0.9296754688758863 31.445330548123483 0.29580616947497046 0.0 0.0 0.0
0.0 0.0 780.60324064853 18.331049668309973 -0.10053018487284927 3.5232912309293596 0.0 0.0 -6.21202086223343e-17 -1.0495711243835115 -13.391345799694864 -5.33610851595264 -0.4236946298279502 27.735217702422407 4.085578532561899 0.0 0.0 0.0 0.0 0.0 -6.21202086223343e-17 -0.5045126874303926 -6.513832614250265 -2.8157244755422495 -4.601246613273012 6.872057903044102e-16 2.26553549282104e-16 0.0 0.0 0.0 -14.448198790219841 -41.499055607466545 33.752563430016345 -117.69594545617605 -3.2906695984626426e-15 -5.44382273047825e-15 0.0 0.0 0.0 0.0 0.0 0.0 5.947384219322592 -8.020412351861111 -12.581236953756264 0.0 0.0 0.0 19.461662013991525 19.059521124683123 -77.61777811698292 32.14673693832696 -1.48666629710149e-14 -5.64628498667413e-15 0.0 0.0 -2.3854160110976376e-15 0.0 0.0 -6.21202086223343e-17 -1.1869062054018444 -15.00459386223525 -3.2052259978189253 0.8419444149943116 31.689234403836114 0.413288178555893 0.0 0.0 0.0
0.0 0.0 780.60324064853 18.27523615286286 0.08443518549080929 3.5551363297558733 0.0 0.0 -8.696829207126804e-17 -1.0422944103027865 -13.474988017413235 -5.3478949777852804 -0.4587494613210307 27.64078626998613 4.100240711173534 0.0 0.0 3.975693351829396e-16 0.0 0.0 -8.696829207126804e-17 -0.5110960699068737 -6.686022547259312 -2.8720415630022362 -4.649072495580172 2.5077180539123917e-16 4.080763587885894e-16 0.0 0.0 0.0 -15.011141530696165 -41.42713640393785 33.192256394398065 -116.63084834083175 5.413002149918611e-15 -3.341125566645836e-15 0.0 0.0 0.0 0.0 0.0 0.0 6.101173519762604 -7.900481843382914 -12.54213156480956 0.0 0.0 0.0 19.129236513888735 19.083351708303997 -77.55012869577769 32.412238029015896 2.113816664867063e-15 -1.5519118373492842e-14 0.0 0.0 0.0 0.0 0.0 -8.696829207126804e-17 -1.1765871831780959 -15.070248599233103 -3.2876946426498095 0.7530721095422398 31.638317660723917 0.5413491638242369 -3.1805546814635164e-15 9.939233379573487e-17 3.9756933518293955e-16
